<svg width="60" height="60" viewBox="0 0 60 60" fill="none" xmlns="http://www.w3.org/2000/svg">
<path d="M0 29.355V29.2969C0.526875 22.5 2.98875 17.4019 7.26562 14.1787C11.4844 10.8975 16.0556 9.31499 21.0356 9.31499C26.25 9.25687 31.1137 11.0137 35.4506 14.5294C39.8456 17.9869 42.0131 23.1431 42.0131 29.8219V30.2325C42.0131 36.9712 39.8456 42.0094 35.4506 45.4669C31.0556 48.9825 26.1919 50.7412 20.9775 50.7412H20.7431C15.645 50.6831 10.9575 48.9244 6.6225 45.4087C2.28562 41.9512 0.06 36.6187 0.001875 29.3531L0 29.355ZM19.7456 20.1562V10.8975H18.3394C18.0469 11.25 17.8125 11.6587 17.5781 12.0112C17.3437 12.3637 17.1094 12.7144 16.875 13.125C16.6406 13.4775 16.3481 13.9462 16.1719 14.2969C15.9375 14.6494 15.7612 15 15.585 15.4106C15.2325 15.9975 14.94 16.5825 14.7056 17.1094C14.4131 17.6362 14.1787 18.165 14.0025 18.6337C14.355 18.8681 14.7637 19.1606 15.2325 19.3369C15.7594 19.5131 16.2881 19.6894 16.815 19.8056C17.4019 19.9237 17.9287 19.9819 18.3975 20.04C18.9244 20.0981 19.3931 20.1581 19.7456 20.1581V20.1562ZM22.2075 10.8994V20.0981C22.5 20.0981 22.8525 20.1562 23.2031 20.0981C23.5556 20.0981 23.9644 20.04 24.3169 19.98C24.9619 19.8619 25.7231 19.6875 26.31 19.5112C26.955 19.2769 27.54 18.9844 27.9506 18.6319C27.2475 16.9331 26.4862 15.585 25.7231 14.295C24.96 13.005 24.0825 11.8931 23.145 10.9556V10.8975H22.2075V10.8994ZM15.8794 11.4262V11.3681C15.4687 11.5444 15.0581 11.8369 14.5894 12.0131C14.1787 12.1894 13.6519 12.4237 13.2412 12.6581C12.42 13.0687 11.6006 13.5375 10.7794 14.0644C10.0181 14.5912 9.255 15.1781 8.61187 15.7631C8.84625 15.9975 9.13875 16.2319 9.37312 16.4081C9.6075 16.5844 9.9 16.8187 10.1944 17.0531C10.4287 17.1712 10.7212 17.3456 11.0156 17.58C11.3081 17.7562 11.6606 17.9906 12.0112 18.225C12.48 17.1694 12.9487 16.0575 13.5356 15.06C14.1225 14.0044 14.7656 13.0087 15.4106 12.1294C15.4687 12.0112 15.5287 11.895 15.645 11.7769C15.7031 11.7187 15.7631 11.5444 15.8794 11.4262ZM33.8081 15.7612V15.7031C32.3438 14.5894 31.0537 13.6519 29.7656 13.0669C28.4775 12.4819 27.1875 11.895 26.0156 11.4262C26.9531 12.3637 27.7744 13.5356 28.3012 14.6494C28.8881 15.8212 29.4731 17.0512 29.9419 18.2231C30.1762 18.105 30.4687 17.9887 30.8212 17.7544C31.1137 17.5781 31.5244 17.4019 31.8769 17.2275C32.2294 16.9931 32.5219 16.7587 32.8725 16.5244C33.225 16.2319 33.5756 15.9975 33.81 15.7631L33.8081 15.7612ZM32.8125 28.8281H39.5512C39.5512 26.6606 39.0825 24.6094 38.2031 22.5C37.3819 20.4487 36.21 18.75 34.7456 17.2856V17.2275C34.4531 17.6962 34.0425 18.1069 33.6319 18.3994C33.1631 18.6919 32.7525 18.9262 32.2837 19.1606C31.9912 19.3369 31.6969 19.5712 31.4044 19.6875C31.1119 19.8637 30.7012 19.98 30.4087 20.1562C30.6431 20.625 30.8775 21.1519 31.1119 21.6206C31.2881 22.1475 31.5806 22.7344 31.6987 23.2612C32.0512 24.1987 32.2856 25.1944 32.52 26.1919C32.6962 27.0712 32.8125 28.0087 32.8125 28.8281ZM11.6025 20.1562V20.0981C11.1337 19.8637 10.6069 19.6875 10.1962 19.4531C9.78562 19.1606 9.375 18.8662 9.02437 18.6319C8.67188 18.4556 8.32125 18.2212 8.02875 17.9869C7.73625 17.7525 7.50187 17.5181 7.2675 17.2837C5.74312 18.7481 4.63125 20.3887 3.92812 22.3237C3.16687 24.2569 2.63812 26.4262 2.40375 28.77H9.61125C9.61125 27.1294 9.84562 25.5469 10.2562 23.9644C10.6087 22.3237 11.1337 21.0937 11.6025 20.1562ZM19.7456 28.77V22.0312C19.2769 22.0894 18.69 22.0894 18.1631 22.0312C17.5763 21.9731 16.9912 21.7969 16.4644 21.6206C15.9956 21.5025 15.4087 21.3862 14.94 21.21C14.4131 21.0919 13.8844 20.8575 13.4756 20.6231C13.1231 21.21 12.8306 21.9131 12.5962 22.6744C12.3037 23.3775 12.1275 24.1387 11.9512 24.8419C11.8331 25.545 11.775 26.3062 11.7169 26.9512C11.6587 27.5962 11.5987 28.2412 11.5987 28.7681H19.7437L19.7456 28.77ZM22.2075 22.1494V28.77H30.8794C30.8794 28.4175 30.8794 28.0087 30.8212 27.54C30.7031 27.1294 30.645 26.6025 30.5869 26.1337C30.4106 25.4306 30.2344 24.6694 30 23.9662C29.7656 23.3212 29.5312 22.6762 29.2387 22.1494C29.1206 21.8569 29.0044 21.5044 28.8862 21.27C28.71 20.9775 28.5337 20.8012 28.4175 20.625C27.7725 21.0937 26.8931 21.3862 25.8394 21.6206C24.8437 21.855 23.6719 22.0894 22.6162 22.1475H22.2056L22.2075 22.1494ZM9.60937 30.7031H2.40187C2.40187 31.6987 2.57812 32.8125 2.87062 34.1606C3.16312 35.5669 3.75 36.8569 4.395 38.2631C4.6875 38.9662 5.04 39.6694 5.39062 40.3725C5.80125 41.0175 6.27 41.7206 6.73875 42.3656C7.09125 42.1312 7.44187 41.955 7.73437 41.7787C8.08687 41.6025 8.49562 41.3681 8.84812 41.1919C9.25875 41.0156 9.66937 40.8394 10.1381 40.605C10.5487 40.4287 11.0756 40.1944 11.6025 39.96C11.1337 38.4956 10.6069 37.0894 10.2544 35.5069C9.84375 33.9825 9.60937 32.46 9.60937 30.7612V30.7031ZM19.7456 37.5581V30.7031H11.6006C11.6006 31.1719 11.6587 31.875 11.7769 32.5781C11.835 33.2812 12.0112 34.0425 12.1294 34.8056C12.3637 35.6269 12.54 36.4462 12.7744 37.1494C13.0087 37.8525 13.2431 38.4394 13.4775 38.9662C14.5331 38.5556 15.5869 38.2631 16.29 38.0869C17.0512 37.8525 17.7544 37.6762 18.4575 37.6181H19.1025C19.3369 37.56 19.5712 37.56 19.7475 37.56L19.7456 37.5581ZM22.2075 30.7031V37.5C22.6181 37.5581 23.0869 37.6181 23.5556 37.6762C24.0825 37.7344 24.7275 37.8525 25.2544 37.9687L26.1337 38.145C26.4262 38.2631 26.7787 38.3212 27.0712 38.3794C27.4237 38.4975 27.7744 38.5556 28.1269 38.6719C28.4194 38.79 28.7137 38.8481 28.9481 38.9644C29.7094 37.0312 30.1781 35.4487 30.4725 34.1006C30.765 32.8106 30.8831 31.6987 30.8831 30.7612V30.7031H22.2112H22.2075ZM39.5512 30.7612V30.7031H32.8125V31.0556C32.7544 32.1694 32.5781 33.4575 32.3437 34.8056C32.1094 36.0956 31.5825 37.6181 30.8794 39.4931C31.8169 39.9619 32.6962 40.4306 33.3994 40.8994C34.1025 41.3681 34.7475 41.895 35.2162 42.3637C36.2119 41.3681 37.0912 40.02 37.8525 38.2612C38.6137 36.5625 39.1425 34.8037 39.435 32.9287C39.4931 32.5762 39.4931 32.2256 39.5531 31.8731V30.7594L39.5512 30.7612ZM19.7456 48.5737V39.4331C18.2812 39.6675 17.0494 39.96 16.1119 40.1944C15.1744 40.4287 14.4712 40.6631 14.0025 40.8975C14.355 41.7769 14.7056 42.5381 15.0581 43.2412C15.4106 43.8862 15.8194 44.5894 16.1719 45.1744C16.29 45.4087 16.5244 45.6431 16.6987 45.9356C16.875 46.17 16.9912 46.4625 17.1675 46.6969C17.3438 46.9894 17.52 47.3419 17.6944 47.6925C17.9287 47.985 18.105 48.3375 18.3394 48.5719L19.7456 48.5737ZM22.2075 48.5737H23.5556C24.0825 48.1631 24.6112 47.5781 25.02 46.9331C25.4887 46.2881 26.0156 45.5269 26.3681 44.8819C26.7787 44.1206 27.1894 43.4175 27.54 42.7144C27.8906 42.0112 28.185 41.3662 28.4194 40.8975C27.7744 40.6631 26.895 40.4287 26.0175 40.1944C25.14 39.96 23.9081 39.7256 22.2094 39.4912V48.5737H22.2075ZM33.8081 43.77V43.7119C33.69 43.5356 33.4556 43.3012 33.2812 43.125C33.1069 42.9487 32.8125 42.7144 32.52 42.5381C32.2856 42.3619 31.9931 42.1856 31.6406 42.0112C31.2881 41.8369 30.8194 41.6006 30.4106 41.3662C30.1762 41.835 29.7656 42.6562 29.1806 43.7681C28.6537 44.8819 27.7162 46.23 26.5444 47.6944C28.0087 47.46 29.2987 46.9331 30.4706 46.23C31.7606 45.585 32.8725 44.7056 33.81 43.7681L33.8081 43.77ZM12.0112 41.895V41.8369C11.6006 42.0712 10.9556 42.3637 10.3125 42.6581C9.60937 42.9506 8.84812 43.3031 8.145 43.7719C8.55562 44.1244 8.96625 44.475 9.31687 44.7094C9.66937 45.0019 10.0781 45.2362 10.4306 45.4706C11.0756 45.8812 11.8369 46.2919 12.5981 46.6425C13.3594 46.9931 14.2969 47.3456 15.4687 47.6981C15.0581 47.2294 14.7656 46.6425 14.4731 46.1737C14.1806 45.705 13.8281 45.2362 13.5356 44.7675C13.2431 44.2987 13.0087 43.7719 12.7744 43.3031C12.4819 42.8344 12.2475 42.3656 12.0131 41.8969L12.0112 41.895Z" fill="black"/>
</svg>
