<svg width="34" height="35" viewBox="0 0 34 35" fill="none" xmlns="http://www.w3.org/2000/svg">
<path d="M12.22 5.96467C14.3838 1.98823 15.4657 0 17.0833 0C18.701 0 19.7828 1.98821 21.9466 5.96465L22.5064 6.9934C23.1214 8.12338 23.4288 8.68838 23.9083 9.06117C24.3877 9.43395 24.9846 9.57232 26.1787 9.84909L27.2659 10.1011C31.4677 11.075 33.5688 11.5619 34.0686 13.2085C34.5685 14.8551 33.1362 16.5709 30.2715 20.0023L29.5304 20.8901C28.7164 21.8652 28.3093 22.3527 28.1262 22.956C27.9432 23.5592 28.0047 24.2097 28.1277 25.5108L28.2398 26.6952C28.6728 31.2736 28.8895 33.5627 27.5809 34.5804C26.2721 35.598 24.305 34.6701 20.3707 32.8146L19.3529 32.3344C18.2349 31.8071 17.676 31.5434 17.0833 31.5434C16.4907 31.5434 15.9317 31.8071 14.8138 32.3344L13.796 32.8146C9.86166 34.6701 7.89452 35.598 6.58589 34.5804C5.27725 33.5627 5.4938 31.2736 5.92689 26.6952L6.03893 25.5108C6.16201 24.2097 6.22355 23.5592 6.04043 22.956C5.85733 22.3527 5.45032 21.8652 4.63628 20.8901L3.89517 20.0023C1.03056 16.5709 -0.401763 14.8551 0.0980958 13.2085C0.597954 11.5619 2.69893 11.075 6.90088 10.1011L7.98798 9.84909C9.18204 9.57232 9.77907 9.43395 10.2584 9.06117C10.7378 8.68838 11.0453 8.1234 11.6602 6.9934L12.22 5.96467Z" fill="white"/>
<g clip-path="url(#clip0_39_47)">
<path d="M17 12C13.1336 12 10 15.1336 10 19C10 22.8664 13.1336 26 17 26C20.8664 26 24 22.8664 24 19C24 15.1336 20.8664 12 17 12ZM18.5449 17.8133L18.4656 18.8605H17.391V22.4973H16.0348V18.8605H15.3102V17.8133H16.0348V17.1105C16.0348 16.8016 16.043 16.323 16.2672 16.025C16.5051 15.7105 16.8305 15.4973 17.391 15.4973C18.3043 15.4973 18.6871 15.6285 18.6871 15.6285L18.5066 16.7004C18.5066 16.7004 18.2059 16.6129 17.9242 16.6129C17.6426 16.6129 17.391 16.7141 17.391 16.9957V17.8133H18.5449Z" fill="#79A1A4"/>
</g>
<defs>
<clipPath id="clip0_39_47">
<rect width="14" height="14" fill="white" transform="translate(10 12)"/>
</clipPath>
</defs>
</svg>
