<svg width="35" height="36" viewBox="0 0 35 36" fill="none" xmlns="http://www.w3.org/2000/svg">
<path d="M12.7833 6.2253C14.9471 2.24886 16.029 0.260635 17.6466 0.260635C19.2643 0.260635 20.3461 2.24885 22.5099 6.22528L23.0697 7.25404C23.6847 8.38401 23.9921 8.94902 24.4716 9.3218C24.951 9.69459 25.5478 9.83296 26.742 10.1097L27.8292 10.3617C32.031 11.3356 34.132 11.8226 34.6319 13.4692C35.1318 15.1157 33.6995 16.8316 30.8348 20.263L30.0937 21.1507C29.2797 22.1258 28.8726 22.6134 28.6895 23.2166C28.5065 23.8198 28.568 24.4703 28.691 25.7714L28.8031 26.9558C29.2361 31.5342 29.4528 33.8234 28.1442 34.841C26.8354 35.8586 24.8683 34.9308 20.934 33.0752L19.9162 32.595C18.7982 32.0678 18.2393 31.804 17.6466 31.804C17.054 31.804 16.495 32.0678 15.3771 32.595L14.3593 33.0752C10.425 34.9308 8.45781 35.8586 7.14918 34.841C5.84054 33.8234 6.05709 31.5342 6.49019 26.9558L6.60222 25.7714C6.72531 24.4703 6.78684 23.8198 6.60372 23.2166C6.42063 22.6134 6.01361 22.1258 5.19958 21.1507L4.45847 20.263C1.59385 16.8316 0.161531 15.1157 0.661389 13.4692C1.16125 11.8226 3.26222 11.3356 7.46418 10.3617L8.55128 10.1097C9.74533 9.83296 10.3424 9.69459 10.8217 9.3218C11.3011 8.94902 11.6086 8.38403 12.2235 7.25404L12.7833 6.2253Z" fill="white"/>
<g clip-path="url(#clip0_39_30)">
<path fill-rule="evenodd" clip-rule="evenodd" d="M18 23C19.6568 23 21 21.6568 21 20C21 18.3431 19.6568 17 18 17C16.3431 17 15 18.3431 15 20C15 21.6568 16.3431 23 18 23ZM18 22C19.1046 22 20 21.1046 20 20C20 18.8954 19.1046 18 18 18C16.8954 18 16 18.8954 16 20C16 21.1046 16.8954 22 18 22Z" fill="#79A1A4"/>
<path d="M21 16.5C20.7239 16.5 20.5 16.7239 20.5 17C20.5 17.2761 20.7239 17.5 21 17.5C21.2761 17.5 21.5 17.2761 21.5 17C21.5 16.7239 21.2761 16.5 21 16.5Z" fill="#79A1A4"/>
<path fill-rule="evenodd" clip-rule="evenodd" d="M12.827 16.138C12.5 16.7798 12.5 17.6198 12.5 19.3V20.7C12.5 22.3801 12.5 23.2202 12.827 23.8619C13.1146 24.4264 13.5735 24.8854 14.138 25.173C14.7798 25.5 15.6198 25.5 17.3 25.5H18.7C20.3801 25.5 21.2202 25.5 21.8619 25.173C22.4264 24.8854 22.8854 24.4264 23.173 23.8619C23.5 23.2202 23.5 22.3801 23.5 20.7V19.3C23.5 17.6198 23.5 16.7798 23.173 16.138C22.8854 15.5735 22.4264 15.1146 21.8619 14.827C21.2202 14.5 20.3801 14.5 18.7 14.5H17.3C15.6198 14.5 14.7798 14.5 14.138 14.827C13.5735 15.1146 13.1146 15.5735 12.827 16.138ZM18.7 15.5H17.3C16.4434 15.5 15.8611 15.5008 15.411 15.5375C14.9726 15.5734 14.7484 15.6383 14.592 15.718C14.2157 15.9097 13.9097 16.2157 13.718 16.592C13.6383 16.7484 13.5734 16.9726 13.5375 17.411C13.5008 17.8611 13.5 18.4434 13.5 19.3V20.7C13.5 21.5566 13.5008 22.1389 13.5375 22.589C13.5734 23.0274 13.6383 23.2516 13.718 23.408C13.9097 23.7843 14.2157 24.0902 14.592 24.282C14.7484 24.3617 14.9726 24.4267 15.411 24.4625C15.8611 24.4992 16.4434 24.5 17.3 24.5H18.7C19.5566 24.5 20.1389 24.4992 20.589 24.4625C21.0274 24.4267 21.2516 24.3617 21.408 24.282C21.7843 24.0902 22.0902 23.7843 22.282 23.408C22.3617 23.2516 22.4267 23.0274 22.4625 22.589C22.4992 22.1389 22.5 21.5566 22.5 20.7V19.3C22.5 18.4434 22.4992 17.8611 22.4625 17.411C22.4267 16.9726 22.3617 16.7484 22.282 16.592C22.0902 16.2157 21.7843 15.9097 21.408 15.718C21.2516 15.6383 21.0274 15.5734 20.589 15.5375C20.1389 15.5008 19.5566 15.5 18.7 15.5Z" fill="#79A1A4"/>
</g>
<defs>
<clipPath id="clip0_39_30">
<rect width="12" height="12" fill="white" transform="translate(12 14)"/>
</clipPath>
</defs>
</svg>
