<svg width="35" height="35" viewBox="0 0 35 35" fill="none" xmlns="http://www.w3.org/2000/svg">
<path d="M12.22 5.96467C14.3838 1.98823 15.4657 0 17.0833 0C18.701 0 19.7828 1.98821 21.9466 5.96465L22.5064 6.9934C23.1214 8.12338 23.4288 8.68838 23.9083 9.06117C24.3877 9.43395 24.9846 9.57232 26.1787 9.84909L27.2659 10.1011C31.4677 11.075 33.5688 11.5619 34.0686 13.2085C34.5685 14.8551 33.1362 16.5709 30.2715 20.0023L29.5304 20.8901C28.7164 21.8652 28.3093 22.3527 28.1262 22.956C27.9432 23.5592 28.0047 24.2097 28.1277 25.5108L28.2398 26.6952C28.6728 31.2736 28.8895 33.5627 27.5809 34.5804C26.2721 35.598 24.305 34.6701 20.3707 32.8146L19.3529 32.3344C18.2349 31.8071 17.676 31.5434 17.0833 31.5434C16.4907 31.5434 15.9317 31.8071 14.8138 32.3344L13.796 32.8146C9.86166 34.6701 7.89452 35.598 6.58589 34.5804C5.27725 33.5627 5.4938 31.2736 5.92689 26.6952L6.03893 25.5108C6.16201 24.2097 6.22355 23.5592 6.04043 22.956C5.85733 22.3527 5.45032 21.8652 4.63628 20.8901L3.89517 20.0023C1.03056 16.5709 -0.401763 14.8551 0.0980958 13.2085C0.597954 11.5619 2.69893 11.075 6.90088 10.1011L7.98798 9.84909C9.18204 9.57232 9.77907 9.43395 10.2584 9.06117C10.7378 8.68838 11.0453 8.1234 11.6602 6.9934L12.22 5.96467Z" fill="white"/>
<g clip-path="url(#clip0_39_46)">
<path fill-rule="evenodd" clip-rule="evenodd" d="M17.4194 13C13.8594 13 11 15.8825 11 19.473C11 22.138 12.5646 24.3681 14.8305 25.4017C14.8305 24.1879 14.822 24.3443 15.7469 20.3972C15.2386 19.3715 15.6339 17.6779 16.772 17.6779C18.3515 17.6779 17.2784 20.0197 17.0957 20.9412C16.9339 21.6485 17.4734 22.1927 18.1208 22.1927C19.3616 22.1927 20.1702 20.6149 20.1702 18.7659C20.1702 17.3514 19.1998 16.3179 17.5273 16.3179C14.5536 16.3179 13.7996 19.6297 14.8305 20.6692C15.0898 21.0618 14.8305 21.0802 14.8305 21.5941C14.6504 22.1375 13.2119 21.3477 13.2119 19.3099C13.2119 17.4602 14.7226 15.2848 17.7971 15.2848C20.2242 15.2848 21.8426 17.0796 21.8426 18.9836C21.8426 21.5398 20.4399 23.3895 18.3905 23.3895C17.6891 23.3895 17.0417 23.0084 16.8259 22.5732C16.434 24.0978 16.3547 24.8707 15.7469 25.728C16.3404 25.8912 16.9338 26 17.5812 26C21.1413 26 24 23.1175 24 19.5276C23.8388 15.8827 20.9795 13 17.4194 13Z" fill="#79A1A4"/>
</g>
<defs>
<clipPath id="clip0_39_46">
<rect width="13" height="13" fill="white" transform="translate(11 13)"/>
</clipPath>
</defs>
</svg>
