<svg width="60" height="60" viewBox="0 0 60 60" fill="none" xmlns="http://www.w3.org/2000/svg">
<path d="M44.5078 50H49.4825C50.5637 50 51.1047 50 51.559 49.8145C51.96 49.6508 52.3127 49.3845 52.5805 49.0438C52.8837 48.6578 53.033 48.1388 53.33 47.0988L56.0442 37.599C56.539 35.868 56.785 35.0023 56.5907 34.3178C56.4205 33.7178 56.0327 33.2032 55.5027 32.875C54.9327 32.5217 54.1 32.5013 52.5005 32.5M44.5078 50H15.4923M44.5078 50C47.3025 50 48.7 50 49.7685 49.4555C50.7093 48.9762 51.4762 48.2103 51.9555 47.2695C52.5005 46.2 52.5005 44.7998 52.5005 41.9995V32.5M52.5005 32.5C52.402 32.5 52.3007 32.5 52.1965 32.5H12.5007L8.95752 44.901L8.9524 44.9185C8.55208 46.3195 8.31445 47.1512 8.3449 47.7805M52.5005 32.5V22.9995C52.5005 20.1992 52.5005 18.7991 51.9555 17.7295C51.4762 16.7887 50.7098 16.0243 49.769 15.545C48.6995 15 47.3002 15 44.5 15H30M15.4923 50H12.8027C11.0038 50 10.1019 50 9.49708 49.6252C8.96708 49.2967 8.5786 48.7822 8.40845 48.1822C8.3726 48.056 8.35183 47.9235 8.3449 47.7805M15.4923 50C12.6975 50 11.298 50 10.2295 49.4555C9.4656 49.0662 8.81803 48.488 8.3449 47.7805M8.3449 47.7805C8.23533 47.6167 8.1351 47.446 8.04497 47.269C7.5 46.1995 7.5 44.8002 7.5 42V15M30 15H7.5M30 15L27.3438 12.3438C26.4795 11.4796 26.0465 11.0464 25.542 10.7373C25.0947 10.4631 24.6078 10.2606 24.0976 10.1382C23.5221 10 22.9092 10 21.6863 10H12.5C9.73857 10 7.5 12.2386 7.5 15" stroke="black" stroke-width="5" stroke-linecap="round" stroke-linejoin="round"/>
</svg>
