<svg width="35" height="35" viewBox="0 0 35 35" fill="none" xmlns="http://www.w3.org/2000/svg">
<path d="M12.22 5.96467C14.3838 1.98823 15.4657 0 17.0833 0C18.701 0 19.7828 1.98821 21.9466 5.96465L22.5064 6.9934C23.1214 8.12338 23.4288 8.68838 23.9083 9.06117C24.3877 9.43395 24.9846 9.57232 26.1787 9.84909L27.2659 10.1011C31.4677 11.075 33.5688 11.5619 34.0686 13.2085C34.5685 14.8551 33.1362 16.5709 30.2715 20.0023L29.5304 20.8901C28.7164 21.8652 28.3093 22.3527 28.1262 22.956C27.9432 23.5592 28.0047 24.2097 28.1277 25.5108L28.2398 26.6952C28.6728 31.2736 28.8895 33.5627 27.5809 34.5804C26.2721 35.598 24.305 34.6701 20.3707 32.8146L19.3529 32.3344C18.2349 31.8071 17.676 31.5434 17.0833 31.5434C16.4907 31.5434 15.9317 31.8071 14.8138 32.3344L13.796 32.8146C9.86166 34.6701 7.89452 35.598 6.58589 34.5804C5.27725 33.5627 5.4938 31.2736 5.92689 26.6952L6.03893 25.5108C6.16201 24.2097 6.22355 23.5592 6.04043 22.956C5.85733 22.3527 5.45032 21.8652 4.63628 20.8901L3.89517 20.0023C1.03056 16.5709 -0.401763 14.8551 0.0980958 13.2085C0.597954 11.5619 2.69893 11.075 6.90088 10.1011L7.98798 9.84909C9.18204 9.57232 9.77907 9.43395 10.2584 9.06117C10.7378 8.68838 11.0453 8.1234 11.6602 6.9934L12.22 5.96467Z" fill="white"/>
<path d="M17.5578 13.1336C18.185 13.124 18.8076 13.129 19.4298 13.124C19.4505 13.9022 19.7662 14.6026 20.2685 15.1214L20.2677 15.1206C20.8084 15.6076 21.5118 15.9233 22.2873 15.9769L22.298 15.9777V17.9072C21.5655 17.8888 20.8766 17.7199 20.2555 17.4294L20.2869 17.4425C19.9865 17.298 19.7325 17.1497 19.4911 16.9842L19.511 16.9973C19.5064 18.3953 19.5156 19.7934 19.5015 21.1866C19.462 21.8965 19.226 22.544 18.8474 23.0847L18.8551 23.0728C18.2221 23.9793 17.1968 24.5743 16.0309 24.6096H16.0256C15.9784 24.6119 15.9229 24.613 15.8669 24.613C15.2041 24.613 14.5846 24.4283 14.0566 24.1077L14.0719 24.1165C13.111 23.5383 12.4481 22.549 12.3255 21.3984L12.324 21.3827C12.3144 21.1433 12.3098 20.9038 12.3194 20.6693C12.5071 18.8383 14.0413 17.4218 15.906 17.4218C16.1156 17.4218 16.321 17.4398 16.5206 17.4739L16.4991 17.4708C16.5087 18.1793 16.48 18.8881 16.48 19.5965C16.3179 19.5379 16.1309 19.5038 15.9359 19.5038C15.2202 19.5038 14.6114 19.9613 14.3861 20.6L14.3826 20.6115C14.3317 20.7751 14.3022 20.9632 14.3022 21.1578C14.3022 21.2367 14.3072 21.3149 14.3164 21.3915L14.3156 21.3823C14.4428 22.1663 15.1148 22.7578 15.9252 22.7578C15.9485 22.7578 15.9715 22.7575 15.9945 22.7563H15.9911C16.5516 22.7394 17.0382 22.4379 17.3133 21.9923L17.3171 21.9854C17.4194 21.8429 17.4896 21.6705 17.5129 21.4831L17.5133 21.4777C17.5612 20.6207 17.542 19.7685 17.5466 18.9114C17.5512 16.9819 17.542 15.057 17.5562 13.1325L17.5578 13.1336Z" fill="#79A1A4"/>
</svg>
