<svg width="35" height="35" viewBox="0 0 35 35" fill="none" xmlns="http://www.w3.org/2000/svg">
<path d="M12.22 5.96467C14.3838 1.98823 15.4657 0 17.0833 0C18.701 0 19.7828 1.98821 21.9466 5.96465L22.5064 6.9934C23.1214 8.12338 23.4288 8.68838 23.9083 9.06117C24.3877 9.43395 24.9846 9.57232 26.1787 9.84909L27.2659 10.1011C31.4677 11.075 33.5688 11.5619 34.0686 13.2085C34.5685 14.8551 33.1362 16.5709 30.2715 20.0023L29.5304 20.8901C28.7164 21.8652 28.3093 22.3527 28.1262 22.956C27.9432 23.5592 28.0047 24.2097 28.1277 25.5108L28.2398 26.6952C28.6728 31.2736 28.8895 33.5627 27.5809 34.5804C26.2721 35.598 24.305 34.6701 20.3707 32.8146L19.3529 32.3344C18.2349 31.8071 17.676 31.5434 17.0833 31.5434C16.4907 31.5434 15.9317 31.8071 14.8138 32.3344L13.796 32.8146C9.86166 34.6701 7.89452 35.598 6.58589 34.5804C5.27725 33.5627 5.4938 31.2736 5.92689 26.6952L6.03893 25.5108C6.16201 24.2097 6.22355 23.5592 6.04043 22.956C5.85733 22.3527 5.45032 21.8652 4.63628 20.8901L3.89517 20.0023C1.03056 16.5709 -0.401763 14.8551 0.0980958 13.2085C0.597954 11.5619 2.69893 11.075 6.90088 10.1011L7.98798 9.84909C9.18204 9.57232 9.77907 9.43395 10.2584 9.06117C10.7378 8.68838 11.0453 8.1234 11.6602 6.9934L12.22 5.96467Z" fill="white"/>
<path fill-rule="evenodd" clip-rule="evenodd" d="M14.774 24.5999C19.3022 24.5999 21.779 20.906 21.779 17.7031C21.779 17.5979 21.779 17.4936 21.7718 17.3896C22.2536 17.047 22.6694 16.6216 23 16.1348C22.5512 16.331 22.0742 16.4596 21.5864 16.5163C22.1 16.2132 22.4846 15.7371 22.6688 15.1754C22.1852 15.4577 21.6566 15.657 21.1052 15.7639C20.1728 14.7881 18.6134 14.7408 17.6216 15.6588C16.9826 16.2507 16.7108 17.1332 16.9094 17.975C14.93 17.8769 13.0856 16.9566 11.8352 15.4426C11.1818 16.5502 11.516 17.9666 12.5978 18.6778C12.206 18.6666 11.8226 18.5627 11.48 18.3749V18.4056C11.4806 19.5593 12.3068 20.5527 13.4552 20.7813C13.0928 20.8788 12.7124 20.8929 12.344 20.8226C12.6662 21.8103 13.5908 22.4868 14.6438 22.5063C13.772 23.1809 12.695 23.5472 11.5862 23.5461C11.3906 23.5455 11.195 23.5342 11 23.5112C12.1262 24.2224 13.436 24.5999 14.774 24.5981" fill="#79A1A4"/>
</svg>
